<svg xmlns="http://www.w3.org/2000/svg" width="57.463" height="87.001" viewBox="0 0 57.463 87.001">
  <g id="Grupo_12" data-name="Grupo 12" transform="translate(298.251 -956)">
    <g id="Grupo_11" data-name="Grupo 11">
      <path id="Trazado_17" data-name="Trazado 17" d="M231.5,778.99a14.7,14.7,0,0,0-16.767-2.477s-11.99,5.35-17.515-1.27" transform="translate(-478.932 240.133)" fill="none" stroke="#a73636" stroke-linecap="round" stroke-linejoin="bevel" stroke-width="5"/>
      <path id="Trazado_18" data-name="Trazado 18" d="M197.215,781.711c11.879-12.3,24.667-4.134,24.667-4.134s17.639,8.927,25.766-2.118" transform="translate(-491.932 238.84)" fill="none" stroke="#ff6060" stroke-linecap="round" stroke-linejoin="bevel" stroke-width="5"/>
      <path id="Trazado_19" data-name="Trazado 19" d="M359.595,834.488l-.886-5.237,6.607-4.673,9.1-.886,12.005,3.3,11.683,1.128,8.782-1.692.886,3.626-3.465,6.768-6.2,6.607-7.977,4.27-15.712.725-6.446-3.626-5.64-5.157Z" transform="translate(-652.216 191)" fill="#ff6060"/>
      <g id="Grupo_10" data-name="Grupo 10" transform="translate(-652 191)">
        <g id="Uni贸n_1" data-name="Uni贸n 1" transform="translate(348 776.765)" fill="none">
          <path d="M6,46.735a28.5,28.5,0,0,1,16-25.62V0A34.05,34.05,0,0,0,34.5,2.236,34.868,34.868,0,0,0,46,.376V20.65A28.5,28.5,0,1,1,6,46.735Z" stroke="none"/>
          <path d="M 34.49970626831055 70.23551177978516 C 37.67437744140625 70.23551177978516 40.75144958496094 69.61485290527344 43.64545059204102 68.39077758789063 C 46.4432487487793 67.20738220214844 48.95699310302734 65.51222229003906 51.11686325073242 63.35235214233398 C 53.2767219543457 61.1924934387207 54.97189331054688 58.67875289916992 56.15527725219727 55.88095092773438 C 57.37934875488281 52.98695373535156 58.00000762939453 49.90988159179688 58.00000762939453 46.73521041870117 C 58.00000762939453 42.08992385864258 56.64789199829102 37.59972381591797 54.08984756469727 33.75005340576172 C 51.59109115600586 29.9896240234375 48.09521865844727 27.04146575927734 43.98013305664063 25.22430992126465 L 40.99990463256836 23.90828132629395 L 40.99990463256836 20.65040969848633 L 40.99990463256836 6.743276119232178 C 38.89009857177734 7.068641185760498 36.70589065551758 7.235594749450684 34.49970626831055 7.235594749450684 C 31.93207359313965 7.235594749450684 29.40970230102539 7.012426376342773 26.99960517883301 6.57819128036499 L 26.99960517883301 21.11540985107422 L 26.99960517883301 24.23673820495605 L 24.19536399841309 25.60748100280762 C 20.29697799682617 27.51303863525391 17.00100517272949 30.4592227935791 14.66379165649414 34.12753677368164 C 12.26712036132813 37.88916778564453 11.00030612945557 42.24882507324219 11.00030612945557 46.73521041870117 C 11.00030612945557 49.9099235534668 11.62093448638916 52.98702239990234 12.84493446350098 55.88105392456055 C 14.02826309204102 58.67885208129883 15.72333431243896 61.19259643554688 17.88307762145996 63.35243606567383 C 20.04281997680664 65.51228332519531 22.55644798278809 67.20742034912109 25.35414886474609 68.39079284667969 C 28.24804878234863 69.61485290527344 31.32506370544434 70.23551177978516 34.49970626831055 70.23551177978516 M 34.49970626831055 75.23551177978516 C 18.75960540771484 75.23551177978516 6.000306129455566 62.47529602050781 6.000306129455566 46.73521041870117 C 6.000306129455566 35.47867965698242 12.5249490737915 25.74668121337891 21.99960517883301 21.11540985107422 L 21.99960517883301 -5.067661732027773e-06 C 25.6599063873291 1.462509274482727 29.9817066192627 2.235594987869263 34.49970626831055 2.235594987869263 C 38.58840560913086 2.235594987869263 42.56460571289063 1.592994928359985 45.99990463256836 0.3762092292308807 L 45.99990463256836 20.65040969848633 C 56.01144790649414 25.07136726379395 63.00000762939453 35.08768081665039 63.00000762939453 46.73521041870117 C 63.00000762939453 62.47529602050781 50.23980712890625 75.23551177978516 34.49970626831055 75.23551177978516 Z" stroke="none" fill="#f2fffe"/>
        </g>
        <g id="Intersecci贸n_1" data-name="Intersecci贸n 1" transform="translate(361 753)" fill="none">
          <path d="M9,21.765V12H33V22.141A34.789,34.789,0,0,1,21.5,24,34.1,34.1,0,0,1,9,21.765Z" stroke="none"/>
          <path d="M 21.50010108947754 19.00029945373535 C 23.75017738342285 19.00029945373535 25.94872665405273 18.77886581420898 28.00030136108398 18.35126304626465 L 28.00030136108398 16.99970054626465 L 14.00000095367432 16.99970054626465 L 14.00000095367432 18.12592315673828 C 16.32218933105469 18.70156288146973 18.86350250244141 19.00029945373535 21.50010108947754 19.00029945373535 M 21.50010108947754 24.00029945373535 C 16.83767127990723 24.00029945373535 12.5224609375 23.17210006713867 9.000000953674316 21.76473045349121 L 9.000000953674316 11.99969959259033 L 33.00030136108398 11.99969959259033 L 33.00030136108398 22.14092063903809 C 29.67428016662598 23.3186092376709 25.73025131225586 24.00029945373535 21.50010108947754 24.00029945373535 Z" stroke="none" fill="#f2fffe"/>
        </g>
      </g>
    </g>
    <path id="Trazado_20" data-name="Trazado 20" d="M393.032,805.805s5.4,2.787,6.929,7.541" transform="translate(-653 192)" fill="none" stroke="#f2fffe" stroke-linecap="round" stroke-width="2"/>
  </g>
</svg>
